HIERARCHY
ROOT root
{
	OFFSET 0.000000 0.000000 0.000000
	CHANNELS 6 Xposition Yposition Zposition Zrotation Yrotation Xrotation
	JOINT lhip
	{
		OFFSET 0.058581 -0.082280 -0.017664
		CHANNELS 3 Zrotation Yrotation Xrotation
		JOINT lknee
		{
			OFFSET 0.043451 -0.386469 0.008037
			CHANNELS 3 Zrotation Yrotation Xrotation
			JOINT lankle
			{
				OFFSET -0.014790 -0.426874 -0.037428
				CHANNELS 3 Zrotation Yrotation Xrotation
				JOINT ltoe
				{
					OFFSET 0.041054 -0.060286 0.122042
					CHANNELS 3 Zrotation Yrotation Xrotation
					End Site
					{
						OFFSET 0.000000 0.000000 0.000000
					}
				}
			}
		}
	}
	JOINT rhip
	{
		OFFSET -0.060310 -0.090513 -0.013543
		CHANNELS 3 Zrotation Yrotation Xrotation
		JOINT rknee
		{
			OFFSET -0.043257 -0.383688 -0.004843
			CHANNELS 3 Zrotation Yrotation Xrotation
			JOINT rankle
			{
				OFFSET 0.019056 -0.420046 -0.034562
				CHANNELS 3 Zrotation Yrotation Xrotation
				JOINT rtoe
				{
					OFFSET -0.034840 -0.062106 0.130323
					CHANNELS 3 Zrotation Yrotation Xrotation
					End Site
					{
						OFFSET 0.000000 0.000000 0.000000
					}
				}
			}
		}
	}
	JOINT lowerback
	{
		OFFSET 0.004439 0.124404 -0.038385
		CHANNELS 3 Zrotation Yrotation Xrotation
		JOINT upperback
		{
			OFFSET 0.004488 0.137956 0.026820
			CHANNELS 3 Zrotation Yrotation Xrotation
			JOINT chest
			{
				OFFSET -0.002265 0.056032 0.002855
				CHANNELS 3 Zrotation Yrotation Xrotation
				JOINT lowerneck
				{
					OFFSET -0.013390 0.211636 -0.033468
					CHANNELS 3 Zrotation Yrotation Xrotation
					JOINT upperneck
					{
						OFFSET 0.010113 0.088937 0.050410
						CHANNELS 3 Zrotation Yrotation Xrotation
						End Site
						{
							OFFSET 0.000000 0.000000 0.000000
						}
					}
				}
				JOINT lclavicle
				{
					OFFSET 0.071702 0.114000 -0.018898
					CHANNELS 3 Zrotation Yrotation Xrotation
					JOINT lshoulder
					{
						OFFSET 0.122921 0.045205 -0.019046
						CHANNELS 3 Zrotation Yrotation Xrotation
						JOINT lelbow
						{
							OFFSET 0.255332 -0.015649 -0.022946
							CHANNELS 3 Zrotation Yrotation Xrotation
							JOINT lwrist
							{
								OFFSET 0.265709 0.012698 -0.007375
								CHANNELS 3 Zrotation Yrotation Xrotation
								End Site
								{
									OFFSET 0.000000 0.000000 0.000000
								}
							}
						}
					}
				}
				JOINT rclavicle
				{
					OFFSET -0.082954 0.112472 -0.023707
					CHANNELS 3 Zrotation Yrotation Xrotation
					JOINT rshoulder
					{
						OFFSET -0.113228 0.046853 -0.008472
						CHANNELS 3 Zrotation Yrotation Xrotation
						JOINT relbow
						{
							OFFSET -0.260127 -0.014369 -0.031269
							CHANNELS 3 Zrotation Yrotation Xrotation
							JOINT rwrist
							{
								OFFSET -0.269108 0.006794 -0.006027
								CHANNELS 3 Zrotation Yrotation Xrotation
								End Site
								{
									OFFSET 0.000000 0.000000 0.000000
								}
							}
						}
					}
				}
			}
		}
	}
}
MOTION
Frames: 15
Frame Time: 0.033333
0.500062 0.196660 0.985563 87.741760 4.052306 97.054946 7.811085 4.860667 -3.767779 3.384957 0.983185 -8.049663 -1.630117 11.196763 -2.600833 0.000000 -0.000000 0.000000 -3.862391 -1.941622 -8.779835 -0.394139 1.212775 0.825808 7.105697 -4.996228 -2.986485 0.000000 -0.000000 0.000000 -0.106099 0.866255 -5.132951 5.005465 -3.134899 2.414414 0.833575 1.800500 -7.496903 -2.600973 -4.860797 10.274999 1.267250 -11.233797 0.769000 -22.630800 4.983934 -4.201965 -60.272458 -3.389426 24.011183 3.326284 -12.042941 8.156370 -17.448988 -11.898422 10.040712 23.046675 0.177156 -1.368328 52.851880 5.242339 19.976803 -0.153988 12.562967 9.988679 9.487363 2.203059 8.384436 
0.501966 0.196846 0.985408 88.098261 3.973468 96.987075 7.735653 4.973323 -3.716598 3.413124 0.511944 -7.911025 -1.618726 11.250964 -2.740701 0.000000 -0.000000 0.000000 -3.673258 -2.110903 -8.658398 -0.801149 1.438013 1.113477 7.088932 -5.335057 -3.230845 0.000000 -0.000000 0.000000 -0.268700 0.907215 -4.789888 4.889856 -3.195966 1.862430 0.924392 2.026727 -7.381279 -2.462771 -5.549723 10.150097 1.393177 -10.951710 1.031250 -22.609922 4.215802 -3.913620 -60.463068 -2.852876 25.424270 2.917470 -12.329919 10.972774 -14.581200 -10.821375 11.250440 23.094319 1.215606 -0.727437 52.970796 4.598988 20.262330 -0.478071 12.376619 8.807897 8.071407 2.474544 6.934863 
0.503821 0.196386 0.985403 88.451883 4.046672 96.991246 7.891444 5.456010 -3.860927 3.355245 -0.171652 -7.631546 -1.769312 11.179198 -2.963047 0.000000 -0.000000 0.000000 -3.345056 -2.360112 -8.491752 -1.039045 1.869646 1.105966 6.830095 -5.759399 -3.409226 0.000000 -0.000000 0.000000 -0.224273 0.865671 -4.480290 4.964847 -3.309370 1.563629 0.795431 2.188458 -7.717834 -2.398057 -6.459989 10.072790 1.012119 -10.448600 1.366723 -23.017364 3.637708 -3.957150 -60.083576 -1.808862 27.984285 1.717792 -12.855522 15.725477 -8.422950 -8.337020 13.956711 23.462504 1.135723 -0.962674 52.629713 4.139571 20.485074 0.061296 12.364231 8.345290 6.100400 2.428789 6.444832 
0.507286 0.195943 0.985199 89.050136 3.983878 97.235505 7.892230 5.410911 -4.007669 3.307272 -0.474654 -7.717431 -2.009054 11.101786 -2.994762 0.000000 -0.000000 0.000000 -3.147318 -2.298528 -8.246545 -1.326020 1.879656 0.760802 6.371986 -6.093918 -3.698292 0.000000 -0.000000 0.000000 -0.166514 0.871789 -4.635153 4.892490 -3.319831 1.470284 0.711033 1.710120 -7.977866 -2.180010 -6.384979 9.886928 0.849520 -10.679769 1.310604 -22.881852 3.948510 -4.225164 -59.971714 -1.715599 28.116856 1.308346 -13.055703 15.886002 -8.076137 -8.151057 14.001983 23.980563 0.919881 -1.109611 52.056903 4.452127 20.564874 0.798668 11.944886 8.396609 6.094213 2.632814 6.923706 
0.508254 0.195991 0.984907 89.195271 3.919968 97.314042 7.806983 5.396930 -4.051599 3.334626 -0.493060 -7.756064 -2.031500 11.044824 -2.965660 0.000000 -0.000000 0.000000 -3.217712 -2.343982 -8.281895 -1.301559 1.806746 0.833667 6.321881 -6.142361 -3.752438 0.000000 -0.000000 0.000000 -0.200051 0.861916 -4.709340 4.851875 -3.307314 1.377279 0.714766 1.659875 -7.920358 -2.156687 -6.424595 9.804878 0.832123 -10.803800 1.328147 -22.759982 3.918457 -4.202135 -60.083480 -1.748327 28.133184 1.276884 -13.043188 15.908334 -7.961541 -8.139829 13.908465 24.007127 0.959087 -1.085296 52.119384 4.500750 20.565011 0.750043 11.875434 8.304409 5.894562 2.690800 6.888983 
0.510130 0.196163 0.984674 89.601051 3.884824 97.325193 7.769004 5.323753 -3.954964 3.421930 -0.762239 -7.892133 -2.082597 11.023259 -2.880235 0.000000 -0.000000 0.000000 -3.181242 -2.420537 -8.067874 -1.375924 1.694628 0.784292 6.152639 -6.426432 -3.867215 0.000000 -0.000000 0.000000 -0.213951 0.735174 -4.644913 4.772198 -3.336629 1.348862 0.759930 1.752509 -8.044508 -2.246604 -6.707201 9.780337 1.047768 -10.774699 1.406515 -22.754704 3.593014 -4.007154 -60.115994 -1.765257 28.147208 1.326412 -13.009980 15.670057 -7.707342 -8.142873 13.839862 23.846956 1.683977 -0.712637 52.251463 4.168096 20.713575 0.737499 11.925379 7.506477 5.317208 2.996616 6.528017 
0.511747 0.196326 0.984374 89.794782 3.908055 97.392119 7.838688 5.318102 -3.885272 3.371132 -0.837030 -8.042614 -2.132698 10.952446 -2.881163 0.000000 -0.000000 0.000000 -3.083374 -2.575984 -8.045878 -1.455540 1.666282 0.840997 6.031421 -6.451634 -3.918551 0.000000 -0.000000 0.000000 -0.143840 0.772138 -4.681792 4.733815 -3.368195 1.378053 0.766947 1.777640 -8.082813 -2.218438 -6.772961 9.655351 1.060849 -10.796513 1.412643 -22.890261 3.436714 -3.956740 -60.043797 -1.805202 28.134536 1.336606 -13.054702 15.645735 -7.565624 -7.989917 13.714131 23.800316 1.996150 -0.656847 52.208840 4.243896 20.878261 0.857195 11.876546 7.495581 5.439471 2.899262 6.240210 
0.513121 0.196342 0.984291 89.938295 3.951886 97.381428 7.860618 5.294071 -3.786385 3.464887 -0.842401 -8.081808 -2.169159 10.875926 -2.892533 0.000000 -0.000000 0.000000 -3.011404 -2.626125 -7.898849 -1.471589 1.594142 0.823312 5.980571 -6.469632 -3.930600 0.000000 -0.000000 0.000000 -0.124067 0.768180 -4.522490 4.747278 -3.360364 1.163862 0.821576 1.749516 -8.002838 -2.115497 -6.807913 9.512539 1.015623 -10.759383 1.476486 -22.928847 3.478097 -3.964032 -60.090971 -1.783312 28.056594 1.401343 -13.078792 15.725180 -7.612024 -7.996400 13.603477 23.795719 1.912930 -0.735718 52.174464 4.351146 20.864254 0.797563 12.049755 7.723495 5.505571 2.875405 6.269431 
0.514530 0.196086 0.984222 90.109460 3.920061 97.538716 7.842675 5.260879 -3.893889 3.483593 -0.823941 -8.072110 -2.194756 10.744982 -2.946207 0.000000 -0.000000 0.000000 -3.008961 -2.668236 -7.894942 -1.497446 1.527401 0.752505 5.938585 -6.515090 -3.915889 0.000000 -0.000000 0.000000 -0.269240 0.777981 -4.692872 4.850701 -3.412878 1.103697 0.825141 1.631892 -7.902727 -1.862093 -6.652860 9.276352 0.999858 -10.779745 1.604784 -22.893222 3.707229 -4.121816 -60.141215 -1.799454 28.054204 1.346522 -12.992027 15.993120 -7.805293 -8.042042 13.678598 24.048180 1.244143 -1.159077 51.842782 4.686141 20.666666 1.014890 12.279174 8.697403 5.972940 2.733714 6.783221 
0.515612 0.195963 0.984283 90.181523 3.878051 97.752482 7.783778 5.200527 -4.047076 3.510544 -0.838391 -8.096446 -2.186145 10.781085 -2.974477 0.000000 -0.000000 0.000000 -3.042357 -2.639373 -8.033521 -1.488720 1.481186 0.750902 5.933188 -6.591779 -3.955910 0.000000 -0.000000 0.000000 -0.409766 0.790392 -4.943762 4.894233 -3.433831 1.232061 0.839129 1.630433 -8.002128 -1.753617 -6.636094 9.222291 1.088830 -10.768861 1.629240 -22.846286 3.686905 -4.111988 -60.175891 -1.760822 28.080041 1.335958 -12.930063 15.875843 -7.850055 -8.037486 13.741757 24.087785 1.331264 -1.161457 51.750607 4.698260 20.695143 1.071891 12.384613 8.693605 5.964393 2.819694 6.868623 
0.516463 0.195926 0.984055 90.243587 3.958129 97.596628 7.920925 5.206664 -3.774046 3.481658 -0.869139 -8.201606 -2.178419 10.794504 -2.976869 0.000000 -0.000000 0.000000 -2.940736 -2.697578 -7.813421 -1.496720 1.504141 0.784499 5.899943 -6.590308 -4.049563 0.000000 -0.000000 0.000000 -0.288237 0.809173 -4.573320 4.831475 -3.415676 1.028541 0.844896 1.586971 -7.868715 -1.695016 -6.706904 9.082556 1.191965 -10.754565 1.677230 -22.863611 3.643371 -4.063560 -60.117701 -1.808771 27.911466 1.313178 -13.017201 15.938090 -7.778730 -7.923119 13.555703 24.060205 1.401675 -1.192160 51.737602 4.818021 20.690669 1.123911 12.490681 8.787815 5.959548 2.763454 6.797407 
0.517314 0.196031 0.983908 90.294976 3.946618 97.656410 7.900097 5.221296 -3.747027 3.503974 -0.963447 -8.315469 -2.177992 10.866798 -2.917077 0.000000 -0.000000 0.000000 -2.911598 -2.679794 -7.811513 -1.555508 1.515033 0.770468 5.879044 -6.700009 -4.071366 0.000000 -0.000000 0.000000 -0.233658 0.798433 -4.473644 4.758874 -3.415349 1.000427 0.826395 1.705004 -7.953284 -1.756655 -6.997183 9.111835 1.337032 -10.756865 1.680247 -22.908243 3.438248 -3.991647 -60.086211 -1.789182 27.990502 1.342711 -12.883222 15.709009 -7.614149 -7.935119 13.537406 23.815323 1.938406 -0.930669 51.965772 4.612246 20.890354 1.060326 12.440608 8.174166 5.617834 3.007858 6.361548 
0.518029 0.195947 0.983836 90.412014 3.895724 97.850131 7.861140 5.213628 -3.930222 3.481322 -0.936410 -8.315007 -2.235757 10.748502 -2.894699 0.000000 -0.000000 0.000000 -2.943957 -2.685731 -7.960559 -1.577510 1.403261 0.800200 5.807905 -6.719792 -4.068074 0.000000 -0.000000 0.000000 -0.304293 0.738893 -4.676270 4.817255 -3.441393 1.033999 0.791439 1.579310 -7.921959 -1.672454 -6.869024 9.007590 1.199620 -10.979136 1.719824 -22.956944 3.628185 -4.078212 -60.050467 -1.797196 27.975521 1.376732 -12.829253 15.781134 -7.791486 -7.949306 13.644354 24.067995 1.375326 -1.278338 51.758255 4.802004 20.694019 1.098861 12.577743 8.756083 5.898750 2.855917 6.911172 
0.518513 0.196043 0.983669 90.454837 3.940014 97.722877 7.914733 5.205989 -3.728358 3.517817 -1.056824 -8.402893 -2.191755 10.839298 -2.926180 0.000000 -0.000000 0.000000 -2.864301 -2.713886 -7.798693 -1.616250 1.429761 0.824967 5.744963 -6.812099 -4.120026 0.000000 -0.000000 0.000000 -0.197741 0.768428 -4.379477 4.697477 -3.454150 1.012090 0.814775 1.739003 -7.980741 -1.752498 -7.106051 9.083509 1.418944 -10.824837 1.767534 -22.930071 3.224809 -3.849995 -60.083048 -1.814491 27.981107 1.458141 -12.804362 15.596302 -7.505182 -7.936662 13.425944 23.742116 2.250936 -0.748018 52.094867 4.494949 20.916057 0.945930 12.402739 7.840146 5.389825 3.106098 6.094888 
0.518967 0.196039 0.983567 90.529882 3.951230 97.733745 7.930143 5.222035 -3.710550 3.547533 -1.092288 -8.429775 -2.211138 10.814918 -2.919847 0.000000 -0.000000 0.000000 -2.813985 -2.774350 -7.804803 -1.628732 1.404875 0.885115 5.659986 -6.858609 -4.164791 0.000000 -0.000000 0.000000 -0.183353 0.779362 -4.364301 4.713743 -3.488037 1.112055 0.816797 1.716229 -8.010552 -1.727621 -7.113211 9.072802 1.429212 -10.856149 1.747125 -22.998565 3.229482 -3.889414 -60.021746 -1.826303 27.977785 1.423176 -12.848350 15.522684 -7.449096 -7.863819 13.404664 23.746250 2.227611 -0.773002 52.090879 4.453773 20.922506 0.969054 12.383445 7.691538 5.357170 3.009133 6.085220 
